<svg xmlns="http://www.w3.org/2000/svg" viewBox="0 0 270.84 364.72"><defs><style>.cls-1{fill:none;stroke:#000;stroke-linecap:round;stroke-linejoin:round;stroke-width:2px;}.cls-2{fill:#231f20;opacity:0.51;}</style></defs><g id="Layer_2" data-name="Layer 2"><g id="Layer_1-2" data-name="Layer 1"><g id="MtEYEs"><path class="cls-1" d="M99.58,78a113,113,0,0,1,12.64.8,1.59,1.59,0,0,0,.89-.1.61.61,0,0,0,.14-.07A6.88,6.88,0,0,0,117,71a15.67,15.67,0,0,0-1.54-4.65c-5.18-8.49-5.79-13.39-2.83-22.83.58-1.85,1.28-3.81,1.71-5a1.22,1.22,0,0,0,.06-.26c1.91-11.13,9-18.72,18.63-19.87a18.25,18.25,0,0,1,2.22-.13C144.59,18.31,152.91,25,156,35c.29.93.61,1.86.94,2.8a40,40,0,0,1,2.71,11.79,29.91,29.91,0,0,1-4.19,16.74c-1,1.55-1.34,6.56-.86,9.83a1.63,1.63,0,0,0,1,1.28,15.26,15.26,0,0,0,5.09,1.21H161l1.14-.12A85.84,85.84,0,0,1,171,78M167,132.87a1.1,1.1,0,0,1,0,.36c-.88,4.27.4,8.62.68,11.28.67,6.42,1.54,13,2.38,19.34,1.26,9.53.72,19,1.43,28.81.56,7.79-.21,15.46-1,22.87a1.63,1.63,0,0,0,0,.44,31.69,31.69,0,0,1,.55,6.16l.28,14.17c0,.06,0,.11,0,.17-.51,4.71,1,9.3.62,14a25.89,25.89,0,0,0,.9,6.44l.07.35s3.6,22.14,2.11,32.3c-.59,4-1.19,8.1-1.49,12l-.11,1.42c-.59,7.53-3.79,13.73-.47,19.09.06.1,6.31,10.34,1,16.59-3.61,4.25-8.12,7-12.37,7.65-1,.14-4.13,0-5,0a11.7,11.7,0,0,1-8.31-3.07c-3.89-3.65-4.53-9.17-4.65-13.57,0-1.59-.24-3.32-.46-5.16a66.06,66.06,0,0,1-.6-7.57,42.08,42.08,0,0,1,.61-6.54,23.36,23.36,0,0,0,.42-4.24l0-.59c-.45-8.05-6-68.17-7.36-75.89A77.42,77.42,0,0,1,135,220c-.19,1.93-.38,3.85-.57,5.74-.57,5.6-3.82,63.32-4.17,68.88a71.36,71.36,0,0,0,.18,8.43c.17,2.68.33,5.46.27,8.36v.54a184,184,0,0,1-1.56,24.28c-1.1,7.17-13.38,10.14-17.7,10.14a8.26,8.26,0,0,1-1.15-.07c-6.12-.75-10.79-5.55-12.52-7.57-2.11-2.48-3.72-7.25.6-16,3.25-6.57-1-10.93-1.67-19.73l-.2-2.43c-.25-3.24-.52-9.68-.92-12.94-1.36-11-2.27-22.15,1.15-34.54A63.48,63.48,0,0,0,99.18,238c0-2.27.1-4.9-.09-7.23V225s.17-5.81,0-9.24c-.34-10.31.69-20.64,1.33-31.72a116.89,116.89,0,0,1,1.8-13.55c.66-3.81,1.28-7.4,1.53-10.92.14-1.94.3-3.86.47-5.79a90.63,90.63,0,0,0-.78-20.85"/></g><path class="cls-1" d="M103.49,132.94c-.12-14.93-18-1.68-19.61,18.13-.89,10.7.48,35.47,2.6,40.93,3.07,2.86-1.19,10.84-2.34,14.88-1.57,5.52-10.31,9.17-16.16,7.44-6.22-1.83-12.19-10.54-10.52-16.37l-.37-7.07-4.84-44.54c-3.46-18.6,15.92-38.76,18.61-41.41L92.77,82c1.52-1.49,3.37-3.89,6.34-4.09"/><path class="cls-1" d="M167.35,132.94c.12-14.93,18-1.68,19.61,18.13.89,10.7-.48,35.47-2.6,40.93-3.07,2.86,1.19,10.84,2.34,14.88,1.57,5.52,10.31,9.17,16.16,7.44,6.22-1.83,12.19-10.54,10.52-16.37l.37-7.07,4.84-44.54c3.46-18.6-15.92-38.76-18.6-41.41L178.07,82c-1.52-1.49-3.37-3.89-6.34-4.09"/><path class="cls-2" d="M0,0V364.72H270.84V0ZM171.73,77.93c3,.2,4.82,2.6,6.34,4.09L200,104.93c2.68,2.65,22.06,22.81,18.6,41.41l-4.84,44.54-.37,7.07c1.67,5.83-4.3,14.54-10.52,16.37-5.85,1.73-14.59-1.92-16.16-7.44-1.15-4-5.41-12-2.34-14.88,2.12-5.46,3.49-30.23,2.6-40.93-1.64-19.81-19.49-33.06-19.61-18.13l-.32-.07a1.1,1.1,0,0,1,0,.36c-.89,4.27.4,8.62.68,11.28.67,6.42,1.54,13,2.38,19.34,1.26,9.53.72,19,1.43,28.81.56,7.79-.21,15.46-1,22.87a1.63,1.63,0,0,0,0,.44,31.69,31.69,0,0,1,.55,6.16l.27,14.17a1,1,0,0,1,0,.17c-.51,4.71,1,9.3.62,14a25.89,25.89,0,0,0,.9,6.44l.07.35s3.6,22.14,2.11,32.3c-.59,4-1.19,8.1-1.49,12l-.11,1.42c-.59,7.53-3.79,13.73-.47,19.09.06.1,6.31,10.34,1,16.59-3.61,4.25-8.12,7-12.37,7.65-1,.14-4.13,0-5,0a11.7,11.7,0,0,1-8.31-3.07c-3.89-3.65-4.53-9.17-4.65-13.57,0-1.59-.24-3.32-.46-5.16a66.06,66.06,0,0,1-.6-7.57,42.08,42.08,0,0,1,.61-6.54,23.36,23.36,0,0,0,.42-4.24l0-.59c-.45-8.05-6-68.17-7.36-75.89A77.42,77.42,0,0,1,135,220c-.19,1.93-.38,3.85-.57,5.74-.57,5.6-3.82,63.32-4.17,68.88a71.36,71.36,0,0,0,.18,8.43c.16,2.68.33,5.46.27,8.36v.54a184,184,0,0,1-1.56,24.28c-1.1,7.17-13.38,10.14-17.7,10.14a8.51,8.51,0,0,1-1.16-.07c-6.11-.75-10.78-5.55-12.51-7.57-2.11-2.48-3.72-7.25.6-16,3.25-6.57-1-10.93-1.67-19.73l-.2-2.43c-.25-3.24-.52-9.68-.92-12.94-1.36-11-2.27-22.15,1.15-34.54A63.48,63.48,0,0,0,99.18,238c0-2.27.1-4.9-.09-7.23V225s.17-5.81.06-9.24c-.35-10.31.68-20.64,1.32-31.72a116.89,116.89,0,0,1,1.8-13.55c.66-3.81,1.28-7.4,1.53-10.92.14-1.94.3-3.86.47-5.79a90.63,90.63,0,0,0-.78-20.85c-.12-14.93-18-1.68-19.61,18.13-.89,10.7.48,35.47,2.6,40.93,3.07,2.86-1.19,10.84-2.34,14.88-1.57,5.52-10.31,9.17-16.16,7.44-6.22-1.83-12.19-10.54-10.52-16.37l-.37-7.07-4.84-44.54c-3.46-18.6,15.92-38.76,18.6-41.41L92.77,82c1.52-1.49,3.37-3.89,6.34-4.09l.47,0a113,113,0,0,1,12.64.8,1.59,1.59,0,0,0,.89-.1.61.61,0,0,0,.14-.07A6.88,6.88,0,0,0,117,71a15.67,15.67,0,0,0-1.54-4.65c-5.18-8.49-5.79-13.39-2.83-22.83.58-1.85,1.28-3.81,1.71-5a1.22,1.22,0,0,0,.06-.26c1.91-11.13,9-18.72,18.63-19.87a18.25,18.25,0,0,1,2.22-.13C144.59,18.31,152.91,25,156,35c.29.93.61,1.86.94,2.8a40,40,0,0,1,2.71,11.79,29.91,29.91,0,0,1-4.19,16.74c-1,1.55-1.34,6.56-.86,9.83a1.63,1.63,0,0,0,1,1.28,15.26,15.26,0,0,0,5.09,1.21H161l1.14-.12A85.84,85.84,0,0,1,171,78"/></g></g></svg>