<svg xmlns="http://www.w3.org/2000/svg" xmlns:xlink="http://www.w3.org/1999/xlink" viewBox="0 0 457.32 683.51"><defs><style>.cls-1{fill:url(#radial-gradient);}.cls-2{fill:none;stroke:#000;stroke-linecap:round;stroke-linejoin:round;stroke-width:2px;}</style><radialGradient id="radial-gradient" cx="231.72" cy="339.31" r="320.35" gradientTransform="translate(63.26 -20.23) scale(0.71 1.07)" gradientUnits="userSpaceOnUse"><stop offset="0" stop-color="#222020" stop-opacity="0.6"/><stop offset="0.58" stop-color="#363434" stop-opacity="0.54"/><stop offset="0.79" stop-color="#807f7f" stop-opacity="0.35"/><stop offset="0.93" stop-color="#fff" stop-opacity="0"/></radialGradient></defs><g id="Layer_2" data-name="Layer 2"><g id="Capa_1" data-name="Capa 1"><path class="cls-1" d="M0,0V683.51H457.32V0ZM333.2,345.41c-.47,3.11-1,6.22-1.42,9.33-.2,1.33,1.05,2.87.86,4.2,0,.29-.06.63-.11,1.06-.62,5.67.34,12.42-2.49,17.37-5.53,9.69-8.44,11.56-18.08,12.85s-15.08-9.35-17.61-18.84c-5.7-21.4,2.57-5.74,2.7-49.82,0-9.23-.13-22-.59-31.18-.25-5-3.27-8.17-2.89-13.06-.51-1.46-1-2.92-1.59-4.37-.12-.32-.21-.58-.29-.8s-.18-.38-.29-.63c-.47-1-1.4-.32-1.87-1.32-.25-.51-1-1-1.26-1.53-.25-.17-1-1.59-1.25-1.75-1.42-.85-.34-2.25-1.82-3s-1.92-2.73-3.46-3.45l-.6-.31c-.37-.11-.73-.21-.89-.28-2.07-.81-4.14-1.59-6.21-2.36-.09,1.45-2.18,3.12-2.62,4.54A49.63,49.63,0,0,1,270,272.71c2.25,3.2.74,6.66,1.24,10.47a525.16,525.16,0,0,1,4.88,65.54c.26,39.08-3,78.77,3.75,117.22,3.95,22.35.7,37.69-.33,56.45-.45,8-2.4,12.72-3.06,20.74-.18,2.22,1.17,3.94,1.14,6.15,3.44,4.76,5.3,14.85,3.78,20.5v.14a23.36,23.36,0,0,1-1.19,6.91c-9.47,7.6-9.05,9.51-16.79,10.55-6.87.92-16.17,1.23-19.2-5.84a70,70,0,0,1-5.4-33.47c.64-9.06.18-17.39.53-26.48.74-19.28-3.26-38-4.54-57.21-1.34-20.15-5.11-41.39-6.28-61.55-.09-1.62-1.1-1.73-1.19-3.35-2.51,9,.24,16.84-1.42,26-.62,3.42,1.11,6,.56,9.39l-.15.91c0,.2-.05.43-.08.7-.2,1.7-.41,3.39-.6,5.1q-.9,8.32-1.33,16.7c-1,19.6-2.28,39.18-2.28,58.78,0,13.4,3,28.89-1.17,42.6q0,3.72-.23,7.45c-.45,9-5.8,16.27-14.46,19a26.8,26.8,0,0,1-7.38,1.15c-3.32.07-8.59-1-3.44-.45-7.11-.74-13.22-3.28-17-9.75-3.25-5.55-4.09-14.42,0-19.88a39.61,39.61,0,0,0,3.09-5c-.28-15.45-4.12-30.86-4.74-46.33-.72-17.87-2.11-32.89.18-54.41.95-8.94,2.57-17.22,3.32-26.18q.57-6.69,1.33-13.37c.26-2.22-1-4-.72-6.24.28-2.06-.81-3.59-.53-5.65,0-.06.64-.92.65-1s0-.76,0-.9c3.11-36.69,4.19-67.87,7-103.8.1-1.2-.37-8.23.08-9.28-.23-1.18,0-2.61-.13-3.89.52,3.85,0-2.61-.19-3.36-.37-1.87,1.05-3.55.62-5.41-.89-3.86-1.92-7.68-3-11.5-.44-1.57-1.49-.77-1.52-2.34-1.13.21-1.44-.56-2.56-.28-1.5.38-2.92-.53-4.4-.09h0l-.48.29-1.29.84-1.5,1.44c0,.06-.06.11-.1.18-.34.61-.73,1.2-1.07,1.81-.13.22-.47.87-.8,1.49-.17.54-1.14,2.85-1.36,3.52-.44,1.34-3.38,4.13-3.77,5.49a155,155,0,0,1-6.23,18.32c-1.11,2.6,1.6,2.72,2.27,1.16.43-1,.44-1,0,0-.27.76-.6,1.51-.89,2.26-.54,1.44-1.07,2.89-1.55,4.35-1,2.93.84,5.95.26,9,0,.55.07,4,0,4.37-.1,1.48.25,7.45.24,8.93,0,3.58.57,3.79.91,7.35,0,.13,0,3.1,0,3.26.32,1.4-.65-.2-.3,1.2.71,2.82-.71,2.09,0,4.91,3.9,15.27,5.69,33.24-3.79,46.26-4.21,5.78-7.59,7.67-14.71,5.71s-13.66-6.09-15.13-13.05c-3.6-16.89-2.12-36.67-5.34-54-8-43.38-5.73-67.94,22.6-99.11,41.65-45.84,25.59-37.16,57.59-38.77-.17-1.1,2.16-7.84,2.24-9,0-.25-1.21-5.56-1.2-5.8-1.08-1.59-1.47-3.47-2.23-4.92-3.84-7.33-5.87-15.08-4.35-23.31,4-21.94,5.54-29.38,17.55-41.53,5.83-5.9,19.25-6,25.81-1.66,12.3,8,15.27,17.15,17.35,30.67,4.69,6.14,6.38,15.4,1.65,21.92-.63.79.59,6.48.11,7.36,0,0-1.78,3.86-1.8,3.89-.37,1.15-1.36,3.12-1.4,3.26a21,21,0,0,1-1.59,3.82c-.15,3.91-.41,2.55-.26,6.44.15.79.29,1.59.46,2.38.43,2-1.74,3.22-1.08,5.14l2.7.75c.07.16.14.31.21.44,9.21.15,23.19-1.19,28.17,5.67,7.26,10,15.93,16.53,23.11,26.16,5.62,7.52,12.7,15.95,17.11,24.24,5.72,10.46,13.4,17.75,13.26,29.58,3.66,12.13-1.44,24.82-1.43,37.58S335.1,332.86,333.2,345.41Z"/><g id="Layer_2-2" data-name="Layer 2"><g id="Layer_1-2" data-name="Layer 1-2"><g id="MtEYEs"><path class="cls-2" d="M181.72,186.66c.85,0,8.17-.91,9.49-.83"/><path class="cls-2" d="M191.21,185.83c2.71.21,5.29.46,6.92.76a1.76,1.76,0,0,0,1.19-.15l.18-.09c3.76-2,5.81-6.71,5-11.34a25.63,25.63,0,0,0-2-7c-6.85-12.7-7.66-20.06-3.74-34.2.76-2.77,1.69-5.71,2.26-7.49a2.14,2.14,0,0,0,.09-.34c2.51-16.69,11.9-28.06,24.62-29.79a24.17,24.17,0,0,1,2.94-.18c12.31,0,23.31,10.07,27.37,25.07.37,1.39.81,2.8,1.23,4.19A66.38,66.38,0,0,1,260.8,143,49.27,49.27,0,0,1,255.26,168c-1.32,2.34-1.77,9.83-1.13,14.73a2.46,2.46,0,0,0,1.32,1.93,18.17,18.17,0,0,0,6.73,1.81h.48l1.5-.18c1.66-.19,6.6-.66,8.32-.82"/><path class="cls-2" d="M272.48,185.5c1.1,0,2.2-.09,3.31-.09"/><path class="cls-2" d="M270.62,267.67a2.26,2.26,0,0,1,0,.52c-.19,1.05,0,9.63,0,10.7"/><path class="cls-2" d="M270.6,278.89c.32,2.39.7,4.49.86,6.21.89,9.62,2,19.48,3.15,29,1.68,14.26.95,28.46,1.89,43.14.74,11.69-.28,23.16-1.32,34.28a2.29,2.29,0,0,0,0,.64,53.89,53.89,0,0,1,.72,9.24l.38,21.22v.25c-.68,7.06,1.32,13.93.82,21a44,44,0,0,0,1.19,9.65l.1.51s4.75,33.17,2.78,48.39c-.78,6-1.58,12.15-2,18l-.15,2.13c-.76,11.27-5,20.57-.62,28.58.09.15,8.34,15.49,1.32,24.86C275,582.27,269,586.39,263.4,587.38c-1.33.21-5.47,0-6.62,0a14.47,14.47,0,0,1-11-4.48c-5.14-5.47-6-13.72-6.13-20.31a77,77,0,0,0-.62-7.73,110.58,110.58,0,0,1-.79-11.36,72.61,72.61,0,0,1,.81-9.78,39.88,39.88,0,0,0,.54-6.37v-.88c-.59-12.06-7.93-102.12-9.74-113.67-.4-2.46-1.35-12.35-1.62-14.64"/><path class="cls-2" d="M228.51,401.89c-.1-1.28-.18-2.52-.24-3.73l-.31,3.72"/><path class="cls-2" d="M227.32,398.16c-1.11,16.84-4.88,104-5.29,111.77a123.75,123.75,0,0,0,.25,12.63c.22,4,.43,8.18.36,12.52v.83c-.21,11.88-.42,24.15-2.07,36.36-1.46,10.74-17.7,15.2-23.41,15.2a12.79,12.79,0,0,1-1.52-.1c-8.09-1.14-14.27-8.32-16.56-11.36-2.77-3.7-4.9-10.86.8-24,4.3-9.84-1.26-16.37-2.21-29.54l-.26-3.65c-.34-4.84-.68-14.51-1.22-19.39-1.8-16.48-3-33.17,1.52-51.74a105.82,105.82,0,0,0,3.21-22.59c0-3.39.13-7.34-.12-10.83v-8.62s.23-8.7.08-13.84c-.46-15.43.92-30.9,1.75-47.52A199.54,199.54,0,0,1,185,324c.87-5.71,1.69-11.1,2-16.38.19-2.89.39-5.78.62-8.67a152.12,152.12,0,0,0-.2-23.77"/><path class="cls-2" d="M187.45,275.22c-.26-2.34-.87-7.46-.87-7.46"/></g><path class="cls-2" d="M186.6,267.76a24.48,24.48,0,0,0-.31-3.73c-.62-6.26-3.83-5.73-3.83-5.73-6.91-1.84-20.21,14.71-21.81,36.62-1.18,16,.65,53.13,3.45,61.31,4.05,4.29-1.58,16.24-3.1,22.29-2.08,8.29-13.62,13.74-21.37,11.13-8.23-2.72-16.06-15.77-13.91-24.5l-.49-10.6-6.4-66.76c-4.51-27.82,21-58,24.58-62l29-34.31c.74-.84,1.56-1.87,2.49-2.85"/><path class="cls-2" d="M174.88,188.64a28.46,28.46,0,0,1,6.22-2"/><path class="cls-2" d="M270.62,267.67c0-9.46,4.34-8.14,4.54-9.37"/><path class="cls-2" d="M275.16,258.3c6.91-1.84,20.2,14.71,21.81,36.62,1.16,16-.65,53.13-3.45,61.31-4.06,4.29,1.57,16.24,3.09,22.29,2.08,8.29,13.65,13.74,21.37,11.16,8.23-2.75,16.12-15.8,13.91-24.53l.5-10.6,6.39-66.76c4.59-27.88-21-58.08-24.59-62.05l-29-34.31c-.75-.84-1.56-1.87-2.5-2.85"/><path class="cls-2" d="M282.7,188.58c-1-.58-4.77-3.13-5.87-3.22"/></g></g></g></g></svg>