<?xml version="1.0" standalone="no"?>
<!DOCTYPE svg PUBLIC "-//W3C//DTD SVG 20010904//EN"
 "http://www.w3.org/TR/2001/REC-SVG-20010904/DTD/svg10.dtd">
<svg version="1.0" xmlns="http://www.w3.org/2000/svg"
 width="211.000000pt" height="273.000000pt" viewBox="0 0 211.000000 273.000000"
 preserveAspectRatio="xMidYMid meet">
<metadata>
Created by potrace 1.10, written by Peter Selinger 2001-2011
</metadata>
<g transform="translate(0.000000,273.000000) scale(0.100000,-0.100000)"
fill="#000000" stroke="none">
<path d="M1047 2656 c-59 -22 -102 -63 -124 -120 -16 -43 -15 -133 2 -181 21
-57 20 -60 -30 -76 -46 -14 -99 -61 -424 -376 -105 -101 -126 -116 -216 -159
-114 -53 -131 -65 -151 -113 -40 -96 17 -202 102 -188 49 8 142 57 169 90 13
15 88 70 167 122 183 121 183 121 245 179 l53 49 0 -64 c0 -64 -15 -149 -50
-289 -18 -73 -29 -178 -50 -487 -7 -95 -17 -167 -27 -190 -28 -67 -43 -137
-43 -205 0 -83 -38 -236 -85 -343 -44 -102 -45 -143 -4 -189 49 -56 118 -61
177 -11 31 26 69 118 96 230 28 118 55 212 99 345 24 74 50 162 57 195 38 180
73 295 89 295 9 0 20 -36 57 -200 15 -63 30 -128 35 -145 5 -16 22 -77 38
-135 16 -58 36 -121 44 -140 8 -19 30 -102 48 -185 48 -223 48 -225 74 -251
20 -20 34 -24 81 -24 51 0 59 3 91 35 33 33 35 39 31 86 -3 31 -13 58 -25 72
-49 53 -65 111 -83 302 -5 55 -16 141 -25 190 -23 136 -44 393 -45 546 0 132
-1 140 -36 230 -19 52 -42 109 -50 126 -10 23 -14 60 -12 128 l3 95 62 -57
c88 -83 168 -152 216 -186 23 -16 65 -53 92 -82 28 -29 77 -74 109 -99 50 -39
66 -46 104 -46 37 0 50 6 78 34 72 72 31 169 -121 289 -27 21 -112 96 -187
166 -75 69 -149 137 -165 151 -15 14 -62 62 -103 107 -50 56 -85 86 -110 94
-50 16 -54 23 -35 60 15 27 16 48 11 117 -9 120 -40 174 -119 207 -44 18 -60
18 -110 1z m123 -41 c41 -21 66 -77 74 -166 8 -80 -3 -127 -38 -162 -23 -23
-12 -37 29 -37 19 0 46 -5 60 -10 24 -9 110 -95 180 -178 15 -18 40 -39 56
-48 16 -8 48 -36 72 -61 23 -26 50 -54 61 -62 10 -9 51 -47 90 -84 39 -38 83
-75 99 -83 15 -8 27 -18 27 -23 0 -5 16 -19 35 -32 39 -26 75 -90 75 -133 0
-36 -41 -76 -78 -76 -31 0 -160 87 -175 118 -5 9 -26 31 -48 47 -47 37 -88 72
-156 136 -28 27 -56 49 -61 49 -6 0 -45 34 -87 76 -58 58 -79 74 -88 65 -8 -8
-12 -52 -12 -124 0 -111 1 -113 49 -232 l49 -120 4 -150 c2 -82 9 -197 14
-255 10 -98 11 -121 8 -152 0 -7 9 -59 20 -115 11 -56 18 -109 15 -118 -4 -8
-2 -21 4 -28 5 -6 12 -48 15 -92 11 -172 27 -232 82 -297 30 -35 33 -86 7
-118 -13 -16 -32 -24 -68 -27 -65 -6 -85 9 -91 73 -3 27 -9 54 -13 59 -4 6
-11 33 -15 60 -8 63 -40 185 -64 250 -23 62 -95 323 -116 425 -9 41 -23 97
-31 124 -8 26 -14 54 -14 61 0 22 -41 106 -49 100 -5 -2 -11 -23 -15 -46 -4
-23 -15 -61 -26 -84 -11 -23 -24 -60 -29 -81 -23 -90 -30 -122 -41 -179 -7
-33 -16 -73 -22 -90 -93 -291 -121 -384 -144 -485 -26 -114 -56 -174 -99 -194
-63 -30 -135 10 -135 76 0 15 17 67 38 115 48 110 79 241 86 360 3 64 12 110
29 155 37 93 36 87 48 298 14 261 22 340 46 435 44 175 53 231 51 322 -2 51
-6 93 -10 93 -4 0 -15 -12 -25 -26 -47 -69 -110 -123 -243 -211 -80 -52 -162
-107 -183 -121 -21 -14 -46 -35 -55 -47 -39 -49 -167 -104 -201 -86 -41 22
-51 118 -17 167 8 11 60 40 116 65 98 42 106 49 218 162 64 64 121 117 127
117 6 0 52 42 103 93 157 157 165 163 209 170 23 4 49 14 58 23 14 15 14 19
-7 52 -32 52 -33 187 -2 229 51 68 137 93 204 58z"/>
<path d="M525 1850 c-3 -5 -2 -10 4 -10 5 0 13 5 16 10 3 6 2 10 -4 10 -5 0
-13 -4 -16 -10z"/>
<path d="M1680 1806 c0 -2 8 -10 18 -17 15 -13 16 -12 3 4 -13 16 -21 21 -21
13z"/>
<path d="M1572 1784 c10 -10 20 -15 24 -12 3 4 -5 12 -18 18 -22 12 -22 12 -6
-6z"/>
<path d="M630 186 c0 -2 8 -10 18 -17 15 -13 16 -12 3 4 -13 16 -21 21 -21 13z"/>
<path d="M678 163 c7 -3 16 -2 19 1 4 3 -2 6 -13 5 -11 0 -14 -3 -6 -6z"/>
<path d="M333 1815 c0 -8 4 -12 9 -9 5 3 6 10 3 15 -9 13 -12 11 -12 -6z"/>
<path d="M125 1440 c3 -5 14 -10 23 -10 15 0 15 2 2 10 -20 13 -33 13 -25 0z"/>
<path d="M110 1419 c0 -14 20 -20 36 -11 14 8 12 10 -10 14 -14 3 -26 2 -26
-3z"/>
</g>
</svg>
